<svg preserveAspectRatio="none" width="100%" height="100%" overflow="visible" style="display: block;" viewBox="0 0 110.4 32" fill="none" xmlns="http://www.w3.org/2000/svg">
<g id="Fictional company logo">
<g id="Logomark">
<path id="Shape" fill-rule="evenodd" clip-rule="evenodd" d="M13.0665 2.2986C12.7327 2.22935 12.3883 2.22935 12.0544 2.2986C11.6685 2.37865 11.3235 2.57349 11.0493 2.72839L10.9746 2.7705L1.68015 7.97772C1.65445 7.99211 1.62798 8.00682 1.60084 8.02189C1.31054 8.18314 0.94553 8.38589 0.665222 8.69263C0.422875 8.95784 0.239473 9.27217 0.127281 9.6146C-0.00248555 10.0107 -0.000967324 10.4309 0.000240076 10.7651C0.000352942 10.7964 0.000463033 10.8269 0.000463033 10.8565V21.1378C0.000463033 21.1674 0.000352942 21.1979 0.000240076 21.2292C-0.000967324 21.5634 -0.00248555 21.9836 0.127281 22.3797C0.239474 22.7221 0.422876 23.0365 0.665222 23.3017C0.945531 23.6084 1.31055 23.8112 1.60085 23.9724C1.62798 23.9875 1.65446 24.0022 1.68015 24.0166L10.9746 29.2238L11.0493 29.2659C11.3236 29.4208 11.6685 29.6156 12.0544 29.6957C12.3883 29.7649 12.7327 29.7649 13.0665 29.6957C13.4525 29.6156 13.7974 29.4208 14.0716 29.2659L14.1464 29.2238L23.4408 24.0166C23.4522 24.0102 23.4637 24.0038 23.4753 23.9973C23.49 23.9891 23.505 23.9808 23.5201 23.9724C23.8104 23.8112 24.1754 23.6084 24.4557 23.3017C24.6981 23.0365 24.8815 22.7221 24.9937 22.3797C25.1234 21.9836 25.1219 21.5634 25.1207 21.2291C25.1206 21.1979 25.1205 21.1674 25.1205 21.1378V10.8565C25.1205 10.8269 25.1206 10.7964 25.1207 10.7651C25.1219 10.4309 25.1234 10.0107 24.9937 9.6146C24.8815 9.27217 24.6981 8.95784 24.4557 8.69263C24.1754 8.38588 23.8104 8.18313 23.5201 8.02188L23.5191 8.02132C23.4923 8.00644 23.4662 7.99193 23.4408 7.97771L14.1464 2.7705L14.0716 2.72838C13.7974 2.57349 13.4525 2.37865 13.0665 2.2986ZM12.1945 4.98495C12.3848 4.87831 12.482 4.82443 12.5545 4.78918L12.5605 4.78628L12.5665 4.78918C12.639 4.82443 12.7361 4.87831 12.9265 4.98495L21.2782 9.66401L12.5604 14.5481L3.84274 9.66404L12.1945 4.98495ZM2.51247 11.8167L11.3044 16.7424L11.3045 26.5107L2.90009 21.8021C2.69919 21.6896 2.59661 21.6315 2.52465 21.5853L2.51857 21.5813L2.51812 21.5741C2.51299 21.4882 2.51247 21.3696 2.51247 21.1378V11.8167Z" fill="var(--fill-0, #BCBFC2)" fill-opacity="0.66"/>
</g>
<g id="Logotype">
<path d="M36.5517 20.2302H40.5499V22.6062H33.4995V9.97015H36.5517V20.2302Z" fill="var(--fill-0, #BCBFC2)" fill-opacity="0.66"/>
<path d="M43.3623 11.5182C42.8268 11.5182 42.3865 11.3622 42.0414 11.0502C41.7082 10.7262 41.5416 10.3302 41.5416 9.86215C41.5416 9.38215 41.7082 8.98615 42.0414 8.67415C42.3865 8.35015 42.8268 8.18815 43.3623 8.18815C43.8858 8.18815 44.3142 8.35015 44.6474 8.67415C44.9925 8.98615 45.165 9.38215 45.165 9.86215C45.165 10.3302 44.9925 10.7262 44.6474 11.0502C44.3142 11.3622 43.8858 11.5182 43.3623 11.5182ZM44.8794 12.5622V22.6062H41.8272V12.5622H44.8794Z" fill="var(--fill-0, #BCBFC2)" fill-opacity="0.66"/>
<path d="M50.6968 12.4182C51.3989 12.4182 52.0117 12.5622 52.5353 12.8502C53.0708 13.1382 53.4813 13.5162 53.7669 13.9842V12.5622H56.8191V22.5882C56.8191 23.5122 56.6346 24.3462 56.2658 25.0902C55.9088 25.8462 55.3555 26.4462 54.6058 26.8902C53.868 27.3342 52.9458 27.5562 51.8392 27.5562C50.3637 27.5562 49.1678 27.2022 48.2515 26.4942C47.3353 25.7982 46.8117 24.8502 46.6808 23.6502H49.6973C49.7925 24.0342 50.0186 24.3342 50.3756 24.5502C50.7325 24.7782 51.1728 24.8922 51.6964 24.8922C52.3271 24.8922 52.8268 24.7062 53.1957 24.3342C53.5765 23.9742 53.7669 23.3922 53.7669 22.5882V21.1662C53.4694 21.6342 53.0589 22.0182 52.5353 22.3182C52.0117 22.6062 51.3989 22.7502 50.6968 22.7502C49.8758 22.7502 49.1321 22.5402 48.4657 22.1202C47.7993 21.6882 47.2698 21.0822 46.8771 20.3022C46.4964 19.5102 46.306 18.5982 46.306 17.5662C46.306 16.5342 46.4964 15.6282 46.8771 14.8482C47.2698 14.0682 47.7993 13.4682 48.4657 13.0482C49.1321 12.6282 49.8758 12.4182 50.6968 12.4182ZM53.7669 17.5842C53.7669 16.8162 53.5527 16.2102 53.1243 15.7662C52.7078 15.3222 52.1962 15.1002 51.5893 15.1002C50.9824 15.1002 50.4648 15.3222 50.0364 15.7662C49.6199 16.1982 49.4117 16.7982 49.4117 17.5662C49.4117 18.3342 49.6199 18.9462 50.0364 19.4022C50.4648 19.8462 50.9824 20.0682 51.5893 20.0682C52.1962 20.0682 52.7078 19.8462 53.1243 19.4022C53.5527 18.9582 53.7669 18.3522 53.7669 17.5842Z" fill="var(--fill-0, #BCBFC2)" fill-opacity="0.66"/>
<path d="M64.971 12.4542C66.1133 12.4542 67.0296 12.8382 67.7197 13.6062C68.4099 14.3622 68.755 15.4062 68.755 16.7382V22.6062H65.7206V17.1522C65.7206 16.4802 65.5481 15.9582 65.203 15.5862C64.8579 15.2142 64.3938 15.0282 63.8108 15.0282C63.2277 15.0282 62.7636 15.2142 62.4185 15.5862C62.0735 15.9582 61.9009 16.4802 61.9009 17.1522V22.6062H58.8487V9.28615H61.9009V13.9122C62.2103 13.4682 62.6327 13.1142 63.1682 12.8502C63.7037 12.5862 64.3046 12.4542 64.971 12.4542Z" fill="var(--fill-0, #BCBFC2)" fill-opacity="0.66"/>
<path d="M76.2485 19.9962V22.6062H74.6957C73.589 22.6062 72.7263 22.3362 72.1075 21.7962C71.4888 21.2442 71.1794 20.3502 71.1794 19.1142V15.1182H69.9656V12.5622H71.1794V10.1142H74.2316V12.5622H76.2307V15.1182H74.2316V19.1502C74.2316 19.4502 74.303 19.6662 74.4458 19.7982C74.5886 19.9302 74.8265 19.9962 75.1597 19.9962H76.2485Z" fill="var(--fill-0, #BCBFC2)" fill-opacity="0.66"/>
<path d="M80.8224 13.9842C81.1079 13.5162 81.5185 13.1382 82.0539 12.8502C82.5894 12.5622 83.2022 12.4182 83.8924 12.4182C84.7135 12.4182 85.4572 12.6282 86.1235 13.0482C86.7899 13.4682 87.3135 14.0682 87.6943 14.8482C88.0869 15.6282 88.2833 16.5342 88.2833 17.5662C88.2833 18.5982 88.0869 19.5102 87.6943 20.3022C87.3135 21.0822 86.7899 21.6882 86.1235 22.1202C85.4572 22.5402 84.7135 22.7502 83.8924 22.7502C83.1903 22.7502 82.5775 22.6122 82.0539 22.3362C81.5304 22.0482 81.1198 21.6702 80.8224 21.2022V22.6062H77.7702V9.28615H80.8224V13.9842ZM85.1775 17.5662C85.1775 16.7982 84.9633 16.1982 84.535 15.7662C84.1185 15.3222 83.6009 15.1002 82.9821 15.1002C82.3752 15.1002 81.8576 15.3222 81.4292 15.7662C81.0127 16.2102 80.8045 16.8162 80.8045 17.5842C80.8045 18.3522 81.0127 18.9582 81.4292 19.4022C81.8576 19.8462 82.3752 20.0682 82.9821 20.0682C83.589 20.0682 84.1066 19.8462 84.535 19.4022C84.9633 18.9462 85.1775 18.3342 85.1775 17.5662Z" fill="var(--fill-0, #BCBFC2)" fill-opacity="0.66"/>
<path d="M94.2397 22.7502C93.264 22.7502 92.3834 22.5402 91.5981 22.1202C90.8246 21.7002 90.2118 21.1002 89.7596 20.3202C89.3193 19.5402 89.0992 18.6282 89.0992 17.5842C89.0992 16.5522 89.3253 15.6462 89.7774 14.8662C90.2296 14.0742 90.8484 13.4682 91.6337 13.0482C92.4191 12.6282 93.2997 12.4182 94.2754 12.4182C95.2512 12.4182 96.1317 12.6282 96.9171 13.0482C97.7024 13.4682 98.3212 14.0742 98.7734 14.8662C99.2256 15.6462 99.4517 16.5522 99.4517 17.5842C99.4517 18.6162 99.2196 19.5282 98.7555 20.3202C98.3034 21.1002 97.6786 21.7002 96.8814 22.1202C96.096 22.5402 95.2155 22.7502 94.2397 22.7502ZM94.2397 20.0862C94.8228 20.0862 95.3166 19.8702 95.7212 19.4382C96.1377 19.0062 96.3459 18.3882 96.3459 17.5842C96.3459 16.7802 96.1436 16.1622 95.739 15.7302C95.3464 15.2982 94.8585 15.0822 94.2754 15.0822C93.6804 15.0822 93.1866 15.2982 92.7939 15.7302C92.4013 16.1502 92.2049 16.7682 92.2049 17.5842C92.2049 18.3882 92.3953 19.0062 92.7761 19.4382C93.1688 19.8702 93.6566 20.0862 94.2397 20.0862Z" fill="var(--fill-0, #BCBFC2)" fill-opacity="0.66"/>
<path d="M106.783 22.6062L104.873 19.8162L103.266 22.6062H99.9643L103.248 17.4762L99.875 12.5622H103.302L105.212 15.3342L106.818 12.5622H110.12L106.783 17.6202L110.21 22.6062H106.783Z" fill="var(--fill-0, #BCBFC2)" fill-opacity="0.66"/>
</g>
</g>
</svg>
