<svg preserveAspectRatio="none" width="100%" height="100%" overflow="visible" style="display: block;" viewBox="0 0 132.8 32" fill="none" xmlns="http://www.w3.org/2000/svg">
<g id="Fictional company logo">
<g id="Logomark">
<path id="Shape" opacity="0.8" d="M24.3511 7.44209C24.0612 7.15395 23.7713 6.8658 23.4814 6.57765C22.6117 5.65558 21.684 4.73352 20.5245 4.15722C19.191 3.46567 17.7415 3.63855 16.292 3.63855C14.0889 3.63855 8.58088 3.63855 5.33407 3.63855L7.53726 6.57765C11.5378 6.57765 17.7995 6.57765 20.6984 6.57765C21.916 6.57765 22.9596 6.80817 23.9452 7.44209C24.1191 7.49972 24.2931 7.49972 24.3511 7.44209Z" fill="var(--fill-0, #BCBFC2)" fill-opacity="0.66"/>
<path id="Shape_2" opacity="0.9" d="M26.7861 12.1678C26.4963 11.8796 26.2064 11.5915 25.9165 11.3033C25.0468 10.3812 24.1191 9.45918 22.9596 8.88288C21.6261 8.19133 20.1766 8.36422 18.7271 8.36422C16.8138 8.36422 12.2335 8.36422 8.98671 8.36422L11.1899 11.3033C15.1324 11.3033 20.5245 11.3033 23.1915 11.3033C24.409 11.3033 25.4526 11.5338 26.4383 12.1678C26.5542 12.2254 26.6702 12.2254 26.7861 12.1678Z" fill="var(--fill-0, #BCBFC2)" fill-opacity="0.66"/>
<path id="Shape_3" d="M29.5111 16.778C29.2212 16.4898 28.9313 16.2017 28.6414 15.9135C27.7718 14.9914 26.8441 14.0694 25.6845 13.4931C24.351 12.8015 22.9016 12.9744 21.4521 12.9744C19.6548 12.9744 15.7122 12.9744 12.5234 12.9744L14.7266 15.9135C18.5532 15.9135 23.4234 15.9135 25.8585 15.9135C27.076 15.9135 28.1196 16.144 29.1053 16.778C29.2792 16.8356 29.3952 16.8932 29.5111 16.778Z" fill="var(--fill-0, #BCBFC2)" fill-opacity="0.66"/>
<path id="Shape_4" opacity="0.8" d="M5.10217 24.5579C5.39206 24.8461 5.68195 25.1342 5.97185 25.4224C6.84153 26.3444 7.76918 27.2665 8.92875 27.8428C10.2623 28.5343 11.7117 28.3614 13.1612 28.3614H24.1192L21.916 25.4224C17.9154 25.4224 11.6538 25.4224 8.75482 25.4224C7.53727 25.4224 6.49365 25.1918 5.50802 24.5579C5.33408 24.5003 5.21812 24.5003 5.10217 24.5579Z" fill="var(--fill-0, #BCBFC2)" fill-opacity="0.66"/>
<path id="Shape_5" opacity="0.9" d="M2.66704 19.8325C2.95693 20.1206 3.24682 20.4088 3.53672 20.6969C4.4064 21.619 5.33405 22.5411 6.49362 23.1173C7.82713 23.8089 9.2766 23.636 10.7261 23.636H20.4665L18.2633 20.6969C14.3207 20.6969 8.92873 20.6969 6.26171 20.6969C5.04416 20.6969 4.00054 20.4664 3.0149 19.8325C2.89895 19.7748 2.78299 19.7748 2.66704 19.8325Z" fill="var(--fill-0, #BCBFC2)" fill-opacity="0.66"/>
<path id="Shape_6" d="M0 15.1643C0.289893 15.4525 0.579786 15.7406 0.869679 16.0288C1.73936 16.9508 2.66702 17.8729 3.82659 18.4492C5.1601 19.1407 6.60956 18.9679 8.05902 18.9679H16.9877L14.7845 16.0288C10.958 16.0288 6.08776 16.0288 3.65265 16.0288C2.4351 16.0288 1.39148 15.7982 0.405849 15.1643C0.231913 15.1067 0.115957 15.1067 0 15.1643Z" fill="var(--fill-0, #BCBFC2)" fill-opacity="0.66"/>
</g>
<g id="Logotype">
<path d="M36.1726 9.33867V22.6667H39.121V17.16H44.7362V14.8827H39.121V11.8027H45.6V9.33867H36.1726Z" fill="var(--fill-0, #BCBFC2)" fill-opacity="0.66"/>
<path d="M52.995 16.8053H48.6569C48.6694 16.6187 48.707 16.4071 48.7696 16.1707C48.8447 15.9342 48.9636 15.7102 49.1264 15.4987C49.3017 15.2871 49.527 15.1129 49.8025 14.976C50.0904 14.8267 50.4472 14.752 50.8729 14.752C51.5239 14.752 52.0059 14.9262 52.3189 15.2747C52.6445 15.6231 52.8698 16.1333 52.995 16.8053ZM48.6569 18.4853H55.6617C55.7118 17.7387 55.6492 17.0231 55.474 16.3387C55.2987 15.6542 55.0107 15.0444 54.6101 14.5093C54.222 13.9742 53.7212 13.5511 53.1077 13.24C52.4942 12.9164 51.7743 12.7547 50.948 12.7547C50.2093 12.7547 49.5333 12.8853 48.9198 13.1467C48.3188 13.408 47.7993 13.7689 47.3611 14.2293C46.9229 14.6773 46.5848 15.2124 46.347 15.8347C46.1091 16.4569 45.9902 17.1289 45.9902 17.8507C45.9902 18.5973 46.1028 19.2818 46.3282 19.904C46.5661 20.5262 46.8978 21.0613 47.3235 21.5093C47.7492 21.9573 48.2688 22.3058 48.8822 22.5547C49.4957 22.7911 50.1843 22.9093 50.948 22.9093C52.0498 22.9093 52.9888 22.6604 53.765 22.1627C54.5412 21.6649 55.1171 20.8373 55.4927 19.68H53.1453C53.0576 19.9787 52.8197 20.2649 52.4316 20.5387C52.0435 20.8 51.5803 20.9307 51.0419 20.9307C50.2907 20.9307 49.7148 20.7378 49.3142 20.352C48.9135 19.9662 48.6944 19.344 48.6569 18.4853Z" fill="var(--fill-0, #BCBFC2)" fill-opacity="0.66"/>
<path d="M56.5673 15.984C56.6048 15.3618 56.7613 14.8453 57.0368 14.4347C57.3122 14.024 57.6628 13.6942 58.0885 13.4453C58.5141 13.1964 58.9899 13.0222 59.5157 12.9227C60.0541 12.8107 60.5924 12.7547 61.1308 12.7547C61.6191 12.7547 62.1136 12.792 62.6144 12.8667C63.1152 12.9289 63.5722 13.0596 63.9853 13.2587C64.3985 13.4578 64.7365 13.7378 64.9994 14.0987C65.2623 14.4471 65.3938 14.9138 65.3938 15.4987V20.52C65.3938 20.9556 65.4188 21.3724 65.4689 21.7707C65.519 22.1689 65.6066 22.4676 65.7318 22.6667H63.0275C62.9775 22.5173 62.9336 22.368 62.8961 22.2187C62.871 22.0569 62.8523 21.8951 62.8397 21.7333C62.4141 22.1689 61.9133 22.4738 61.3374 22.648C60.7614 22.8222 60.173 22.9093 59.5721 22.9093C59.1088 22.9093 58.6769 22.8533 58.2763 22.7413C57.8756 22.6293 57.5251 22.4551 57.2246 22.2187C56.9241 21.9822 56.6862 21.6836 56.5109 21.3227C56.3482 20.9618 56.2668 20.5324 56.2668 20.0347C56.2668 19.4871 56.3607 19.0391 56.5485 18.6907C56.7488 18.3298 56.9992 18.0436 57.2997 17.832C57.6127 17.6204 57.9633 17.4649 58.3514 17.3653C58.752 17.2533 59.1526 17.1662 59.5533 17.104C59.9539 17.0418 60.3483 16.992 60.7364 16.9547C61.1245 16.9173 61.4688 16.8613 61.7693 16.7867C62.0698 16.712 62.3076 16.6062 62.4829 16.4693C62.6582 16.32 62.7396 16.1084 62.7271 15.8347C62.7271 15.5484 62.677 15.3244 62.5768 15.1627C62.4892 14.9884 62.364 14.8578 62.2012 14.7707C62.051 14.6711 61.8695 14.6089 61.6566 14.584C61.4563 14.5467 61.2372 14.528 60.9993 14.528C60.4735 14.528 60.0603 14.64 59.7599 14.864C59.4594 15.088 59.2841 15.4613 59.234 15.984H56.5673ZM62.7271 17.944C62.6144 18.0436 62.4704 18.1244 62.2951 18.1867C62.1324 18.2364 61.9508 18.28 61.7505 18.3173C61.5627 18.3547 61.3624 18.3858 61.1496 18.4107C60.9367 18.4356 60.7239 18.4667 60.511 18.504C60.3107 18.5413 60.1104 18.5911 59.9101 18.6533C59.7223 18.7156 59.5533 18.8027 59.403 18.9147C59.2653 19.0142 59.1526 19.1449 59.065 19.3067C58.9774 19.4684 58.9335 19.6738 58.9335 19.9227C58.9335 20.1591 58.9774 20.3582 59.065 20.52C59.1526 20.6818 59.2716 20.8124 59.4218 20.912C59.5721 20.9991 59.7473 21.0613 59.9477 21.0987C60.148 21.136 60.3545 21.1547 60.5674 21.1547C61.0932 21.1547 61.5001 21.0676 61.7881 20.8933C62.076 20.7191 62.2889 20.5138 62.4266 20.2773C62.5643 20.0284 62.6457 19.7796 62.6707 19.5307C62.7083 19.2818 62.7271 19.0827 62.7271 18.9333V17.944Z" fill="var(--fill-0, #BCBFC2)" fill-opacity="0.66"/>
<path d="M70.2807 13.016V10.1227H67.6139V13.016H65.9989V14.7893H67.6139V20.4827C67.6139 20.968 67.6953 21.36 67.8581 21.6587C68.0208 21.9573 68.2399 22.1876 68.5153 22.3493C68.8033 22.5111 69.1288 22.6169 69.4919 22.6667C69.8675 22.7289 70.2619 22.76 70.675 22.76C70.9379 22.76 71.2071 22.7538 71.4826 22.7413C71.758 22.7289 72.0084 22.704 72.2337 22.6667V20.6133C72.1086 20.6382 71.9771 20.6569 71.8394 20.6693C71.7017 20.6818 71.5577 20.688 71.4074 20.688C70.9567 20.688 70.6562 20.6133 70.506 20.464C70.3558 20.3147 70.2807 20.016 70.2807 19.568V14.7893H72.2337V13.016H70.2807Z" fill="var(--fill-0, #BCBFC2)" fill-opacity="0.66"/>
<path d="M72.9392 9.33867V22.6667H75.6059V17.608C75.6059 16.6249 75.7687 15.9218 76.0942 15.4987C76.4197 15.0631 76.9455 14.8453 77.6717 14.8453C78.3102 14.8453 78.7546 15.0444 79.005 15.4427C79.2554 15.8284 79.3806 16.4196 79.3806 17.216V22.6667H82.0474V16.7307C82.0474 16.1333 81.991 15.592 81.8784 15.1067C81.7782 14.6089 81.5967 14.192 81.3337 13.856C81.0708 13.5076 80.7077 13.24 80.2445 13.0533C79.7938 12.8542 79.2116 12.7547 78.498 12.7547C77.9972 12.7547 77.4839 12.8853 76.958 13.1467C76.4322 13.3956 76.0003 13.8 75.6622 14.36H75.6059V9.33867H72.9392Z" fill="var(--fill-0, #BCBFC2)" fill-opacity="0.66"/>
<path d="M90.0433 16.8053H85.7052C85.7177 16.6187 85.7553 16.4071 85.8179 16.1707C85.893 15.9342 86.0119 15.7102 86.1747 15.4987C86.3499 15.2871 86.5753 15.1129 86.8507 14.976C87.1387 14.8267 87.4955 14.752 87.9212 14.752C88.5722 14.752 89.0542 14.9262 89.3672 15.2747C89.6928 15.6231 89.9181 16.1333 90.0433 16.8053ZM85.7052 18.4853H92.71C92.7601 17.7387 92.6975 17.0231 92.5222 16.3387C92.347 15.6542 92.059 15.0444 91.6584 14.5093C91.2703 13.9742 90.7695 13.5511 90.156 13.24C89.5425 12.9164 88.8226 12.7547 87.9963 12.7547C87.2576 12.7547 86.5816 12.8853 85.9681 13.1467C85.3671 13.408 84.8476 13.7689 84.4094 14.2293C83.9712 14.6773 83.6331 15.2124 83.3953 15.8347C83.1574 16.4569 83.0384 17.1289 83.0384 17.8507C83.0384 18.5973 83.1511 19.2818 83.3765 19.904C83.6144 20.5262 83.9461 21.0613 84.3718 21.5093C84.7975 21.9573 85.3171 22.3058 85.9305 22.5547C86.544 22.7911 87.2326 22.9093 87.9963 22.9093C89.0981 22.9093 90.037 22.6604 90.8133 22.1627C91.5895 21.6649 92.1654 20.8373 92.541 19.68H90.1936C90.1059 19.9787 89.868 20.2649 89.4799 20.5387C89.0918 20.8 88.6286 20.9307 88.0902 20.9307C87.339 20.9307 86.7631 20.7378 86.3625 20.352C85.9618 19.9662 85.7427 19.344 85.7052 18.4853Z" fill="var(--fill-0, #BCBFC2)" fill-opacity="0.66"/>
<path d="M93.7283 13.016V22.6667H96.395V18.3173C96.395 17.8818 96.4388 17.4773 96.5264 17.104C96.6141 16.7307 96.7581 16.4071 96.9584 16.1333C97.1712 15.8471 97.4467 15.6231 97.7847 15.4613C98.1227 15.2996 98.5359 15.2187 99.0242 15.2187C99.1869 15.2187 99.3559 15.2311 99.5312 15.256C99.7065 15.2684 99.8567 15.2871 99.9819 15.312V12.848C99.7691 12.7858 99.575 12.7547 99.3998 12.7547C99.0617 12.7547 98.7362 12.8044 98.4232 12.904C98.1102 13.0036 97.816 13.1467 97.5406 13.3333C97.2651 13.5076 97.021 13.7253 96.8081 13.9867C96.5953 14.2356 96.4263 14.5093 96.3011 14.808H96.2635V13.016H93.7283Z" fill="var(--fill-0, #BCBFC2)" fill-opacity="0.66"/>
<path d="M103.694 20.2027V11.8027H105.798C106.524 11.8027 107.131 11.9084 107.619 12.12C108.12 12.3191 108.521 12.6116 108.821 12.9973C109.122 13.3831 109.334 13.8498 109.46 14.3973C109.597 14.9324 109.666 15.536 109.666 16.208C109.666 16.9422 109.572 17.5644 109.384 18.0747C109.197 18.5849 108.946 19.0018 108.633 19.3253C108.32 19.6364 107.963 19.8604 107.563 19.9973C107.162 20.1342 106.749 20.2027 106.323 20.2027H103.694ZM100.746 9.33867V22.6667H106.53C107.557 22.6667 108.445 22.4987 109.197 22.1627C109.96 21.8142 110.593 21.3413 111.093 20.744C111.607 20.1467 111.989 19.4373 112.239 18.616C112.489 17.7947 112.615 16.8987 112.615 15.928C112.615 14.8204 112.458 13.856 112.145 13.0347C111.845 12.2133 111.419 11.5289 110.868 10.9813C110.33 10.4338 109.685 10.0231 108.934 9.74933C108.195 9.47556 107.394 9.33867 106.53 9.33867H100.746Z" fill="var(--fill-0, #BCBFC2)" fill-opacity="0.66"/>
<path d="M120.356 16.8053H116.018C116.03 16.6187 116.068 16.4071 116.13 16.1707C116.205 15.9342 116.324 15.7102 116.487 15.4987C116.662 15.2871 116.888 15.1129 117.163 14.976C117.451 14.8267 117.808 14.752 118.234 14.752C118.885 14.752 119.367 14.9262 119.68 15.2747C120.005 15.6231 120.231 16.1333 120.356 16.8053ZM116.018 18.4853H123.023C123.073 17.7387 123.01 17.0231 122.835 16.3387C122.659 15.6542 122.372 15.0444 121.971 14.5093C121.583 13.9742 121.082 13.5511 120.468 13.24C119.855 12.9164 119.135 12.7547 118.309 12.7547C117.57 12.7547 116.894 12.8853 116.281 13.1467C115.68 13.408 115.16 13.7689 114.722 14.2293C114.284 14.6773 113.946 15.2124 113.708 15.8347C113.47 16.4569 113.351 17.1289 113.351 17.8507C113.351 18.5973 113.464 19.2818 113.689 19.904C113.927 20.5262 114.259 21.0613 114.684 21.5093C115.11 21.9573 115.63 22.3058 116.243 22.5547C116.857 22.7911 117.545 22.9093 118.309 22.9093C119.411 22.9093 120.35 22.6604 121.126 22.1627C121.902 21.6649 122.478 20.8373 122.854 19.68H120.506C120.418 19.9787 120.181 20.2649 119.792 20.5387C119.404 20.8 118.941 20.9307 118.403 20.9307C117.652 20.9307 117.076 20.7378 116.675 20.352C116.274 19.9662 116.055 19.344 116.018 18.4853Z" fill="var(--fill-0, #BCBFC2)" fill-opacity="0.66"/>
<path d="M129.412 22.6667L132.698 13.016H130.05L128.003 19.6053H127.966L125.919 13.016H123.121L126.445 22.6667H129.412Z" fill="var(--fill-0, #BCBFC2)" fill-opacity="0.66"/>
</g>
</g>
</svg>
