<svg preserveAspectRatio="none" width="100%" height="100%" overflow="visible" style="display: block;" viewBox="0 0 113.6 32" fill="none" xmlns="http://www.w3.org/2000/svg">
<g id="Fictional company logo">
<g id="Logomark">
<path id="Shape" fill-rule="evenodd" clip-rule="evenodd" d="M14.7012 30.6667C22.8204 30.6667 29.4024 24.1002 29.4024 16C29.4024 7.89983 22.8204 1.33333 14.7012 1.33333C6.58193 1.33333 0 7.89983 0 16C0 24.1002 6.58193 30.6667 14.7012 30.6667ZM19.2874 8.16569C19.5107 7.37457 18.7411 6.90677 18.0383 7.40629L8.2276 14.379C7.46541 14.9207 7.5853 16 8.40769 16H10.9911V15.98H16.0261L11.9235 17.4242L10.1149 23.8343C9.8917 24.6255 10.6612 25.0933 11.364 24.5937L21.1748 17.621C21.937 17.0793 21.817 16 20.9947 16H17.077L19.2874 8.16569Z" fill="var(--fill-0, #BCBFC2)" fill-opacity="0.66"/>
</g>
<g id="Logotype">
<path d="M37.0069 22.6061V20.2861H38.8512V10.9261H37.0069V8.60612H44.2238C45.0792 8.60612 45.8209 8.75279 46.449 9.04612C47.0905 9.32612 47.585 9.73279 47.9325 10.2661C48.2934 10.7861 48.4738 11.4128 48.4738 12.1461V12.3461C48.4738 12.9861 48.3535 13.5128 48.1129 13.9261C47.8724 14.3261 47.585 14.6395 47.2509 14.8661C46.9302 15.0795 46.6228 15.2328 46.3288 15.3261V15.6861C46.6228 15.7661 46.9435 15.9195 47.291 16.1461C47.6385 16.3595 47.9325 16.6728 48.1731 17.0861C48.427 17.4995 48.554 18.0395 48.554 18.7061V18.9061C48.554 19.6795 48.3736 20.3461 48.0127 20.9061C47.6519 21.4528 47.1507 21.8728 46.5092 22.1661C45.881 22.4595 45.146 22.6061 44.304 22.6061H37.0069ZM41.4974 20.2061H43.9832C44.5579 20.2061 45.019 20.0661 45.3665 19.7861C45.7273 19.5061 45.9078 19.1061 45.9078 18.5861V18.3861C45.9078 17.8661 45.734 17.4661 45.3865 17.1861C45.0391 16.9061 44.5713 16.7661 43.9832 16.7661H41.4974V20.2061ZM41.4974 14.3661H43.9432C44.4911 14.3661 44.9388 14.2261 45.2863 13.9461C45.6472 13.6661 45.8276 13.2795 45.8276 12.7861V12.5861C45.8276 12.0795 45.6538 11.6928 45.3064 11.4261C44.9589 11.1461 44.5045 11.0061 43.9432 11.0061H41.4974V14.3661Z" fill="var(--fill-0, #BCBFC2)" fill-opacity="0.66"/>
<path d="M54.5293 22.8861C53.5403 22.8861 52.6515 22.6861 51.863 22.2861C51.0745 21.8861 50.453 21.3061 49.9986 20.5461C49.5442 19.7861 49.317 18.8728 49.317 17.8061V17.4861C49.317 16.4195 49.5442 15.5061 49.9986 14.7461C50.453 13.9861 51.0745 13.4061 51.863 13.0061C52.6515 12.6061 53.5403 12.4061 54.5293 12.4061C55.5182 12.4061 56.407 12.6061 57.1955 13.0061C57.984 13.4061 58.6055 13.9861 59.0599 14.7461C59.5143 15.5061 59.7415 16.4195 59.7415 17.4861V17.8061C59.7415 18.8728 59.5143 19.7861 59.0599 20.5461C58.6055 21.3061 57.984 21.8861 57.1955 22.2861C56.407 22.6861 55.5182 22.8861 54.5293 22.8861ZM54.5293 20.6461C55.3044 20.6461 55.9459 20.3995 56.4538 19.9061C56.9616 19.3995 57.2156 18.6795 57.2156 17.7461V17.5461C57.2156 16.6128 56.9616 15.8995 56.4538 15.4061C55.9593 14.8995 55.3178 14.6461 54.5293 14.6461C53.7541 14.6461 53.1126 14.8995 52.6047 15.4061C52.0969 15.8995 51.8429 16.6128 51.8429 17.5461V17.7461C51.8429 18.6795 52.0969 19.3995 52.6047 19.9061C53.1126 20.3995 53.7541 20.6461 54.5293 20.6461Z" fill="var(--fill-0, #BCBFC2)" fill-opacity="0.66"/>
<path d="M61.0707 22.6061V8.60612H63.5966V22.6061H61.0707Z" fill="var(--fill-0, #BCBFC2)" fill-opacity="0.66"/>
<path d="M69.2023 22.6061C68.5474 22.6061 68.0128 22.4061 67.5985 22.0061C67.1976 21.5928 66.9971 21.0461 66.9971 20.3661V14.7661H64.5113V12.6861H66.9971V9.60612H69.523V12.6861H72.2494V14.7661H69.523V19.9261C69.523 20.3261 69.7101 20.5261 70.0844 20.5261H72.0089V22.6061H69.2023Z" fill="var(--fill-0, #BCBFC2)" fill-opacity="0.66"/>
<path d="M77.6632 22.8861C76.3669 22.8861 75.3044 22.6061 74.4758 22.0461C73.6471 21.4861 73.146 20.6861 72.9722 19.6461L75.2977 19.0461C75.3912 19.5128 75.5449 19.8795 75.7588 20.1461C75.986 20.4128 76.26 20.6061 76.5807 20.7261C76.9148 20.8328 77.2757 20.8861 77.6632 20.8861C78.2513 20.8861 78.6856 20.7861 78.9663 20.5861C79.247 20.3728 79.3873 20.1128 79.3873 19.8061C79.3873 19.4995 79.2536 19.2661 78.9864 19.1061C78.7191 18.9328 78.2914 18.7928 77.7033 18.6861L77.142 18.5861C76.4471 18.4528 75.8122 18.2728 75.2376 18.0461C74.6629 17.8061 74.2018 17.4795 73.8543 17.0661C73.5068 16.6528 73.3331 16.1195 73.3331 15.4661C73.3331 14.4795 73.6939 13.7261 74.4156 13.2061C75.1373 12.6728 76.0862 12.4061 77.2623 12.4061C78.3716 12.4061 79.2937 12.6528 80.0288 13.1461C80.7639 13.6395 81.245 14.2861 81.4722 15.0861L79.1267 15.8061C79.0198 15.2995 78.7992 14.9395 78.4651 14.7261C78.1444 14.5128 77.7434 14.4061 77.2623 14.4061C76.7812 14.4061 76.4136 14.4928 76.1597 14.6661C75.9058 14.8261 75.7788 15.0528 75.7788 15.3461C75.7788 15.6661 75.9125 15.9061 76.1798 16.0661C76.4471 16.2128 76.8079 16.3261 77.2623 16.4061L77.8236 16.5061C78.572 16.6395 79.247 16.8195 79.8484 17.0461C80.4632 17.2595 80.9443 17.5728 81.2918 17.9861C81.6526 18.3861 81.833 18.9328 81.833 19.6261C81.833 20.6661 81.4521 21.4728 80.6904 22.0461C79.9419 22.6061 78.9329 22.8861 77.6632 22.8861Z" fill="var(--fill-0, #BCBFC2)" fill-opacity="0.66"/>
<path d="M83.0442 22.6061V8.60612H85.5701V13.9061H85.9309C86.0379 13.6928 86.2049 13.4795 86.4321 13.2661C86.6593 13.0528 86.96 12.8795 87.3342 12.7461C87.7218 12.5995 88.2096 12.5261 88.7977 12.5261C89.5728 12.5261 90.2477 12.7061 90.8224 13.0661C91.4105 13.4128 91.8649 13.8995 92.1856 14.5261C92.5064 15.1395 92.6667 15.8595 92.6667 16.6861V22.6061H90.1408V16.8861C90.1408 16.1395 89.9537 15.5795 89.5795 15.2061C89.2187 14.8328 88.6974 14.6461 88.0158 14.6461C87.2407 14.6461 86.6393 14.9061 86.2116 15.4261C85.7839 15.9328 85.5701 16.6461 85.5701 17.5661V22.6061H83.0442Z" fill="var(--fill-0, #BCBFC2)" fill-opacity="0.66"/>
<path d="M94.395 22.6061V12.6861H96.921V22.6061H94.395ZM95.658 11.5261C95.2036 11.5261 94.816 11.3795 94.4953 11.0861C94.1879 10.7928 94.0342 10.4061 94.0342 9.92612C94.0342 9.44612 94.1879 9.05945 94.4953 8.76612C94.816 8.47279 95.2036 8.32612 95.658 8.32612C96.1258 8.32612 96.5133 8.47279 96.8207 8.76612C97.1281 9.05945 97.2818 9.44612 97.2818 9.92612C97.2818 10.4061 97.1281 10.7928 96.8207 11.0861C96.5133 11.3795 96.1258 11.5261 95.658 11.5261Z" fill="var(--fill-0, #BCBFC2)" fill-opacity="0.66"/>
<path d="M100.362 22.6061V14.7661H97.8356V12.6861H100.362V10.8461C100.362 10.1661 100.562 9.62612 100.963 9.22612C101.377 8.81279 101.912 8.60612 102.567 8.60612H105.173V10.6861H103.449C103.075 10.6861 102.887 10.8861 102.887 11.2861V12.6861H105.494V14.7661H102.887V22.6061H100.362Z" fill="var(--fill-0, #BCBFC2)" fill-opacity="0.66"/>
<path d="M110.06 22.6061C109.405 22.6061 108.87 22.4061 108.456 22.0061C108.055 21.5928 107.855 21.0461 107.855 20.3661V14.7661H105.369V12.6861H107.855V9.60612H110.381V12.6861H113.107V14.7661H110.381V19.9261C110.381 20.3261 110.568 20.5261 110.942 20.5261H112.867V22.6061H110.06Z" fill="var(--fill-0, #BCBFC2)" fill-opacity="0.66"/>
</g>
</g>
</svg>
