<svg preserveAspectRatio="none" width="100%" height="100%" overflow="visible" style="display: block;" viewBox="0 0 131.2 32" fill="none" xmlns="http://www.w3.org/2000/svg">
<g id="Fictional company logo">
<g id="Logomark">
<path id="Shape" d="M20.2654 1.33333H9.03822L0 10.3807V21.6193L9.03822 30.6667H20.2654L29.3036 21.6193V10.3807L20.2654 1.33333ZM10.5916 21.7606L4.80156 15.9646L10.5916 10.1687C12.7806 7.97751 16.3818 7.97751 18.5707 10.1687L24.3608 15.9646L18.5707 21.7606C16.3818 23.9518 12.8512 23.9518 10.5916 21.7606Z" fill="var(--fill-0, #BCBFC2)" fill-opacity="0.66"/>
</g>
<g id="Logotype">
<path d="M42.1838 22.8267C43.982 22.8267 45.4605 21.9067 45.92 20.5267V22.6667H48.5773V17.2667C48.5773 16.0467 47.6183 15.0067 46.3196 15.0067H42.5234V17.2667H45.2207C45.5604 17.2667 45.7801 17.4867 45.7801 17.8267C45.7801 19.1267 44.0619 20.3867 42.3237 20.3867C40.006 20.3867 38.1679 18.5667 38.1679 15.6667C38.1679 12.7667 40.006 11.0867 42.3836 11.0867C44.1818 11.0867 45.4205 12.0667 45.6403 13.5667H48.6173C48.4374 10.5667 45.92 8.50667 42.4036 8.50667C38.7073 8.50667 35.3108 10.8867 35.3108 15.6667C35.3108 20.4467 38.6074 22.8267 42.1838 22.8267Z" fill="var(--fill-0, #BCBFC2)" fill-opacity="0.66"/>
<path d="M49.718 22.6667H52.4952V8.20667H49.718V22.6667Z" fill="var(--fill-0, #BCBFC2)" fill-opacity="0.66"/>
<path d="M58.4858 22.8267C61.5827 22.8267 63.8004 20.6267 63.8004 17.6267C63.8004 14.6267 61.5827 12.4267 58.4858 12.4267C55.389 12.4267 53.1712 14.6267 53.1712 17.6267C53.1712 20.6267 55.389 22.8267 58.4858 22.8267ZM58.4858 20.4267C56.9873 20.4267 55.9684 19.2867 55.9684 17.6267C55.9684 15.9467 56.9873 14.8067 58.4858 14.8067C59.9843 14.8067 61.0033 15.9467 61.0033 17.6267C61.0033 19.2867 59.9843 20.4267 58.4858 20.4267Z" fill="var(--fill-0, #BCBFC2)" fill-opacity="0.66"/>
<path d="M70.0147 22.8267C72.9917 22.8267 74.7699 20.7667 74.7699 17.6267C74.7699 14.4867 72.9917 12.4267 70.0547 12.4267C68.796 12.4267 67.817 12.9067 67.2575 13.6467V8.20667H64.4804V22.6667H67.2575V21.5667C67.817 22.3467 68.8559 22.8267 70.0147 22.8267ZM69.5752 20.4267C68.0767 20.4267 67.0977 19.3067 67.0977 17.6267C67.0977 15.9267 68.0767 14.8067 69.5752 14.8067C71.0337 14.8067 72.0327 15.9267 72.0327 17.6267C72.0327 19.3067 71.0337 20.4267 69.5752 20.4267Z" fill="var(--fill-0, #BCBFC2)" fill-opacity="0.66"/>
<path d="M79.4188 12.4267C76.6616 12.4267 75.0232 14.0467 74.9034 16.0667H77.3808C77.4208 15.2267 78.0402 14.4667 79.2589 14.4667C80.3978 14.4667 81.0571 15.0467 81.0571 15.8867C81.0571 16.3067 80.7974 16.6267 80.2979 16.6267H78.5996C76.4018 16.6267 74.9233 17.8267 74.9233 19.8067C74.9233 21.5267 76.262 22.8267 78.22 22.8267C79.5986 22.8267 80.7174 22.2067 81.0571 21.2667V22.6667H83.8143V16.1867C83.8143 13.9067 81.9562 12.4267 79.4188 12.4267ZM78.9193 20.8067C78.1401 20.8067 77.5806 20.3467 77.5806 19.6867C77.5806 18.9067 78.18 18.3867 79.0192 18.3867H81.0571V18.5267C81.0571 19.8067 80.2779 20.8067 78.9193 20.8067Z" fill="var(--fill-0, #BCBFC2)" fill-opacity="0.66"/>
<path d="M84.8815 22.6667H87.6587V8.20667H84.8815V22.6667Z" fill="var(--fill-0, #BCBFC2)" fill-opacity="0.66"/>
<path d="M89.1339 22.6667H94.8481C97.8051 22.6667 99.843 21.1467 99.843 18.4867C99.843 16.6467 98.7641 15.5267 97.4854 15.0267C98.3046 14.5867 99.1237 13.5867 99.1237 12.2667C99.1237 9.92667 97.2257 8.66667 94.6882 8.66667H89.1339V22.6667ZM92.0909 14.0067V11.0467H94.4085C95.7472 11.0467 96.3466 11.5867 96.3466 12.5267C96.3466 13.4667 95.7472 14.0067 94.4685 14.0067H92.0909ZM92.0909 20.0667V16.5467H94.5883C96.2467 16.5467 96.9859 17.1867 96.9859 18.3267C96.9859 19.4667 96.2467 20.0667 94.5883 20.0667H92.0909Z" fill="var(--fill-0, #BCBFC2)" fill-opacity="0.66"/>
<path d="M104.674 12.4267C101.917 12.4267 100.279 14.0467 100.159 16.0667H102.636C102.676 15.2267 103.296 14.4667 104.515 14.4667C105.653 14.4667 106.313 15.0467 106.313 15.8867C106.313 16.3067 106.053 16.6267 105.553 16.6267H103.855C101.657 16.6267 100.179 17.8267 100.179 19.8067C100.179 21.5267 101.518 22.8267 103.476 22.8267C104.854 22.8267 105.973 22.2067 106.313 21.2667V22.6667H109.07V16.1867C109.07 13.9067 107.212 12.4267 104.674 12.4267ZM104.175 20.8067C103.396 20.8067 102.836 20.3467 102.836 19.6867C102.836 18.9067 103.436 18.3867 104.275 18.3867H106.313V18.5267C106.313 19.8067 105.533 20.8067 104.175 20.8067Z" fill="var(--fill-0, #BCBFC2)" fill-opacity="0.66"/>
<path d="M109.977 22.6667H112.774V17.1467C112.774 15.8467 113.634 14.9067 114.852 14.9067C116.011 14.9067 116.79 15.7867 116.79 17.0067V22.6667H119.587V16.3867C119.587 14.0667 118.109 12.4267 115.831 12.4267C114.453 12.4267 113.334 13.0067 112.774 13.9867V12.5867H109.977V22.6667Z" fill="var(--fill-0, #BCBFC2)" fill-opacity="0.66"/>
<path d="M127.56 22.6667H130.916L126.581 16.5467L130.596 12.5867H127.08L123.584 16.0267V8.20667H120.786V22.6667H123.584V19.5067L124.702 18.4067L127.56 22.6667Z" fill="var(--fill-0, #BCBFC2)" fill-opacity="0.66"/>
</g>
</g>
</svg>
