<svg preserveAspectRatio="none" width="100%" height="100%" overflow="visible" style="display: block;" viewBox="0 0 13.1889 13.2092" fill="none" xmlns="http://www.w3.org/2000/svg">
<g id="Group">
<path id="Vector" d="M0.749214 12.4407L4.99188 8.19803M10.3345 6.31136L9.06455 10.1214C9.04428 10.1824 9.00958 10.2377 8.96339 10.2825C8.9172 10.3273 8.86088 10.3603 8.79921 10.3787L1.01388 12.6927C0.943741 12.7135 0.869232 12.7147 0.798461 12.6961C0.72769 12.6776 0.663369 12.6399 0.612499 12.5874C0.561628 12.5348 0.526156 12.4692 0.509943 12.3979C0.493731 12.3265 0.497399 12.2521 0.520548 12.1827L3.04855 4.60003C3.06667 4.54558 3.09628 4.49568 3.13539 4.45369C3.1745 4.4117 3.22219 4.37862 3.27521 4.35669L6.86655 2.87803C6.93956 2.84787 7.01987 2.84001 7.09734 2.85544C7.17481 2.87086 7.24598 2.90888 7.30188 2.96469L10.2379 5.90203C10.2904 5.95455 10.3273 6.02067 10.3444 6.09296C10.3614 6.16526 10.358 6.24089 10.3345 6.31136Z" stroke="var(--stroke-0, white)" stroke-linecap="round" stroke-linejoin="round"/>
<path id="Vector_2" d="M10.4132 6.07671L12.2986 4.19072C12.5485 3.94068 12.6889 3.6016 12.6889 3.24805C12.6889 2.8945 12.5485 2.55542 12.2986 2.30538L10.8852 0.890715C10.7614 0.766847 10.6144 0.668586 10.4526 0.601546C10.2908 0.534506 10.1174 0.5 9.94223 0.5C9.76709 0.5 9.59366 0.534506 9.43186 0.601546C9.27006 0.668586 9.12305 0.766847 8.99923 0.890715L7.1139 2.77672M6.4059 6.78338C6.31301 6.69054 6.20274 6.6169 6.08139 6.56667C5.96005 6.51644 5.82999 6.4906 5.69866 6.49063C5.56733 6.49066 5.43729 6.51656 5.31596 6.56685C5.19464 6.61714 5.08441 6.69083 4.99156 6.78372C4.89872 6.8766 4.82508 6.98687 4.77485 7.10822C4.72462 7.22956 4.69878 7.35962 4.69881 7.49095C4.69884 7.62228 4.72474 7.75232 4.77503 7.87365C4.82532 7.99497 4.89901 8.1052 4.9919 8.19805C5.17949 8.38556 5.43389 8.49086 5.69913 8.4908C5.96437 8.49074 6.21872 8.38531 6.40623 8.19772C6.59374 8.01012 6.69904 7.75572 6.69898 7.49048C6.69892 7.22524 6.59349 6.97089 6.4059 6.78338Z" stroke="var(--stroke-0, white)" stroke-linecap="round" stroke-linejoin="round"/>
</g>
</svg>
