<svg preserveAspectRatio="none" width="100%" height="100%" overflow="visible" style="display: block;" viewBox="0 0 12.6667 12.6667" fill="none" xmlns="http://www.w3.org/2000/svg">
<g id="Group">
<path id="Vector" d="M6.33333 12.3333C9.64704 12.3333 12.3333 9.64704 12.3333 6.33333C12.3333 3.01962 9.64704 0.333333 6.33333 0.333333C3.01962 0.333333 0.333333 3.01962 0.333333 6.33333C0.333333 9.64704 3.01962 12.3333 6.33333 12.3333Z" stroke="var(--stroke-0, white)" stroke-width="0.666667" stroke-linecap="round" stroke-linejoin="round"/>
<path id="Vector_2" d="M5.87133 4.826L8.33333 4.33333L7.84067 6.79533C7.78909 7.05338 7.66232 7.2904 7.4763 7.47653C7.29028 7.66267 7.05335 7.7896 6.79533 7.84133L4.33333 8.33333L4.826 5.87133C4.87769 5.61341 5.00452 5.37654 5.19053 5.19053C5.37654 5.00452 5.61341 4.87769 5.87133 4.826Z" stroke="var(--stroke-0, white)" stroke-width="0.666667" stroke-linecap="round" stroke-linejoin="round"/>
</g>
</svg>
