<svg preserveAspectRatio="none" width="100%" height="100%" overflow="visible" style="display: block;" viewBox="0 0 16 16" fill="none" xmlns="http://www.w3.org/2000/svg">
<g id="material-symbols-light:strategy-outline">
<path id="Vector" d="M4 7.23067L2 6.09V3.808L4 2.66667L6 3.808V6.09L4 7.23067ZM4 6.46667L5.33333 5.708V4.19L4 3.43067L2.66667 4.19V5.708L4 6.46667ZM10.8467 7.286V6.518L12.6667 7.57733V11.8593L9 14L5.33333 11.8587V7.57733L7.15333 6.518V7.286L6 7.95933V11.4787L9 13.2187L12 11.4787V7.95867L10.8467 7.286ZM8.66667 9.33333V2H14L12.8973 3.66667L14 5.33333H9.33333V9.33333H8.66667Z" fill="var(--fill-0, white)"/>
</g>
</svg>
