<svg preserveAspectRatio="none" width="100%" height="100%" overflow="visible" style="display: block;" viewBox="0 0 12.9524 12.9524" fill="none" xmlns="http://www.w3.org/2000/svg">
<g id="Group">
<path id="Vector" d="M6.47619 12.5714C9.8425 12.5714 12.5714 9.8425 12.5714 6.47619C12.5714 3.10988 9.8425 0.380952 6.47619 0.380952C3.10988 0.380952 0.380952 3.10988 0.380952 6.47619C0.380952 9.8425 3.10988 12.5714 6.47619 12.5714Z" stroke="var(--stroke-0, white)" stroke-width="0.761905" stroke-linecap="round" stroke-linejoin="round"/>
<path id="Vector_2" d="M6.47617 9.52379C8.15932 9.52379 9.52379 8.15932 9.52379 6.47617C9.52379 4.79301 8.15932 3.42855 6.47617 3.42855C4.79301 3.42855 3.42855 4.79301 3.42855 6.47617C3.42855 8.15932 4.79301 9.52379 6.47617 9.52379Z" stroke="var(--stroke-0, white)" stroke-width="0.761905" stroke-linecap="round" stroke-linejoin="round"/>
<path id="Vector_3" d="M8.76188 4.19045L10.6666 2.28569M8.76188 8.76188L10.6666 10.6666M4.19045 8.76188L2.28569 10.6666M4.19045 4.19045L2.28569 2.28569" stroke="var(--stroke-0, white)" stroke-width="0.761905" stroke-linecap="round" stroke-linejoin="round"/>
</g>
</svg>
