<svg preserveAspectRatio="none" width="100%" height="100%" overflow="visible" style="display: block;" viewBox="0 0 131.333 132.333" fill="none" xmlns="http://www.w3.org/2000/svg">
<path id="Vector 23" d="M0 2.66667C0 4.13943 1.19391 5.33333 2.66667 5.33333C4.13943 5.33333 5.33333 4.13943 5.33333 2.66667C5.33333 1.19391 4.13943 0 2.66667 0C1.19391 0 0 1.19391 0 2.66667ZM126 129.667C126 131.139 127.194 132.333 128.667 132.333C130.139 132.333 131.333 131.139 131.333 129.667C131.333 128.194 130.139 127 128.667 127C127.194 127 126 128.194 126 129.667ZM2.66667 2.66667V3.16667H4.58826V2.66667V2.16667H2.66667V2.66667ZM8.43144 2.66667V3.16667H12.2746V2.66667V2.16667H8.43144V2.66667ZM16.1178 2.66667V3.16667H19.961V2.66667V2.16667H16.1178V2.66667ZM23.8042 2.66667V3.16667H27.6473V2.66667V2.16667H23.8042V2.66667ZM31.4905 2.66667V3.16667H35.3337V2.66667V2.16667H31.4905V2.66667ZM39.1769 2.66667V3.16667H41.0985V2.66667V2.16667H39.1769V2.66667ZM41.0985 2.66667V3.16667C41.7727 3.16667 42.4408 3.19283 43.1017 3.24417L43.1404 2.74567L43.1791 2.24717C42.4925 2.19383 41.7986 2.16667 41.0985 2.16667V2.66667ZM47.1707 3.37956L47.0543 3.86584C48.3649 4.1794 49.6362 4.59416 50.8594 5.10142L51.051 4.63956L51.2425 4.1777C49.9709 3.6504 48.6494 3.21924 47.287 2.89328L47.1707 3.37956ZM54.685 6.49467L54.4234 6.92075C55.5645 7.62148 56.6463 8.40956 57.6594 9.27568L57.9843 8.89563L58.3092 8.51558C57.2566 7.61569 56.1325 6.7968 54.9467 6.0686L54.685 6.49467ZM60.8695 11.7808L60.4895 12.1057C61.3556 13.1189 62.1437 14.2007 62.8444 15.3418L63.2705 15.0801L63.6965 14.8185C62.9683 13.6326 62.1495 12.5086 61.2496 11.4559L60.8695 11.7808ZM65.1256 18.7142L64.6637 18.9057C65.171 20.129 65.5857 21.4002 65.8993 22.7108L66.3856 22.5945L66.8719 22.4781C66.5459 21.1157 66.1147 19.7942 65.5875 18.5227L65.1256 18.7142ZM67.0195 26.6247L66.521 26.6634C66.5723 27.3243 66.5985 27.9924 66.5985 28.6667H67.0985H67.5985C67.5985 27.9665 67.5713 27.2726 67.518 26.586L67.0195 26.6247ZM67.0985 28.6667H66.5985V30.75H67.0985H67.5985V28.6667H67.0985ZM67.0985 34.9167H66.5985V39.0833H67.0985H67.5985V34.9167H67.0985ZM67.0985 43.25H66.5985V47.4167H67.0985H67.5985V43.25H67.0985ZM67.0985 51.5833H66.5985V55.75H67.0985H67.5985V51.5833H67.0985ZM67.0985 59.9167H66.5985V64.0833H67.0985H67.5985V59.9167H67.0985ZM67.0985 68.25H66.5985V72.4167H67.0985H67.5985V68.25H67.0985ZM67.0985 76.5833H66.5985V80.75H67.0985H67.5985V76.5833H67.0985ZM67.0985 84.9167H66.5985V89.0833H67.0985H67.5985V84.9167H67.0985ZM67.0985 93.25H66.5985V97.4167H67.0985H67.5985V93.25H67.0985ZM67.0985 101.583H66.5985V103.667H67.0985H67.5985V101.583H67.0985ZM67.0985 103.667H66.5985C66.5985 104.367 66.6256 105.061 66.679 105.747L67.1775 105.709L67.676 105.67C67.6246 105.009 67.5985 104.341 67.5985 103.667H67.0985ZM67.8114 109.739L67.3251 109.855C67.6511 111.218 68.0822 112.539 68.6095 113.811L69.0714 113.619L69.5332 113.428C69.026 112.204 68.6112 110.933 68.2977 109.623L67.8114 109.739ZM70.9265 117.253L70.5004 117.515C71.2286 118.701 72.0475 119.825 72.9474 120.877L73.3274 120.553L73.7075 120.228C72.8414 119.214 72.0533 118.133 71.3526 116.992L70.9265 117.253ZM76.2126 123.438L75.8877 123.818C76.9404 124.718 78.0645 125.537 79.2503 126.265L79.5119 125.839L79.7736 125.413C78.6325 124.712 77.5507 123.924 76.5375 123.058L76.2126 123.438ZM83.146 127.694L82.9545 128.156C84.226 128.683 85.5475 129.114 86.9099 129.44L87.0263 128.954L87.1426 128.467C85.832 128.154 84.5608 127.739 83.3375 127.232L83.146 127.694ZM91.0565 129.588L91.0178 130.086C91.7044 130.139 92.3983 130.167 93.0985 130.167V129.667V129.167C92.4242 129.167 91.7562 129.141 91.0953 129.089L91.0565 129.588ZM93.0985 129.667V130.167H95.3215V129.667V129.167H93.0985V129.667ZM99.7675 129.667V130.167H104.214V129.667V129.167H99.7675V129.667ZM108.66 129.667V130.167H113.106V129.667V129.167H108.66V129.667ZM117.552 129.667V130.167H121.998V129.667V129.167H117.552V129.667ZM126.444 129.667V130.167H128.667V129.667V129.167H126.444V129.667Z" fill="url(#paint0_linear_0_237)"/>
<defs>
<linearGradient id="paint0_linear_0_237" x1="65.6667" y1="2.66667" x2="65.6667" y2="411.183" gradientUnits="userSpaceOnUse">
<stop stop-color="#EAEAEA"/>
<stop offset="1" stop-color="#EAEAEA" stop-opacity="0"/>
</linearGradient>
</defs>
</svg>
