<svg preserveAspectRatio="none" width="100%" height="100%" overflow="visible" style="display: block;" viewBox="0 0 36.3333 5.33333" fill="none" xmlns="http://www.w3.org/2000/svg">
<path id="Vector 20" d="M0 2.66667C0 4.13943 1.19391 5.33333 2.66667 5.33333C4.13943 5.33333 5.33333 4.13943 5.33333 2.66667C5.33333 1.19391 4.13943 0 2.66667 0C1.19391 0 0 1.19391 0 2.66667ZM31 2.66667C31 4.13943 32.1939 5.33333 33.6667 5.33333C35.1394 5.33333 36.3333 4.13943 36.3333 2.66667C36.3333 1.19391 35.1394 0 33.6667 0C32.1939 0 31 1.19391 31 2.66667ZM2.66667 2.66667V3.16667H4.60417V2.66667V2.16667H2.66667V2.66667ZM8.47917 2.66667V3.16667H12.3542V2.66667V2.16667H8.47917V2.66667ZM16.2292 2.66667V3.16667H20.1042V2.66667V2.16667H16.2292V2.66667ZM23.9792 2.66667V3.16667H27.8542V2.66667V2.16667H23.9792V2.66667ZM31.7292 2.66667V3.16667H33.6667V2.66667V2.16667H31.7292V2.66667Z" fill="url(#paint0_linear_0_23)"/>
<defs>
<linearGradient id="paint0_linear_0_23" x1="18.1667" y1="2.66667" x2="18.1667" y2="5.88333" gradientUnits="userSpaceOnUse">
<stop stop-color="#EAEAEA"/>
<stop offset="1" stop-color="#EAEAEA" stop-opacity="0"/>
</linearGradient>
</defs>
</svg>
