<svg preserveAspectRatio="none" width="100%" height="100%" overflow="visible" style="display: block;" viewBox="0 0 16 16" fill="none" xmlns="http://www.w3.org/2000/svg">
<g id="lineicons:connectdevelop">
<path id="Vector" d="M14.3873 7.66668L13.1853 5.54134C13.2067 5.52001 13.2067 5.45534 13.2067 5.37001C13.2067 5.19801 13.0347 5.00468 12.842 5.00468L11.4667 2.64268C11.488 2.62134 11.488 2.55734 11.488 2.51401C11.4884 2.46602 11.4792 2.41844 11.461 2.37404C11.4428 2.32964 11.4159 2.28929 11.382 2.25536C11.348 2.22143 11.3077 2.19458 11.2633 2.17638C11.2189 2.15818 11.1713 2.14899 11.1233 2.14934C10.9947 2.14934 10.9087 2.21334 10.8233 2.29934H8.24667C8.204 2.23468 8.118 2.19268 8.01067 2.19268C7.95537 2.19245 7.90089 2.20598 7.85213 2.23204C7.80337 2.25811 7.76185 2.2959 7.73133 2.34201H5.15533C5.12043 2.29525 5.07504 2.25732 5.02283 2.23127C4.97061 2.20522 4.91302 2.19178 4.85467 2.19201C4.80657 2.19156 4.75886 2.20071 4.71433 2.21891C4.66981 2.23711 4.62936 2.26401 4.59535 2.29802C4.56133 2.33203 4.53444 2.37249 4.51624 2.41701C4.49803 2.46154 4.48889 2.50924 4.48933 2.55734C4.48933 2.57868 4.51133 2.64268 4.51133 2.68601L3.13667 5.04668C3.008 5.11134 2.90067 5.21868 2.90067 5.39068V5.41201L1.634 7.64534C1.462 7.66668 1.33333 7.81668 1.33333 8.01001C1.33333 8.18201 1.462 8.35334 1.63333 8.37468L2.96533 10.672C2.94333 10.694 2.94333 10.7367 2.94333 10.8013C2.94333 10.9727 3.07267 11.1447 3.244 11.166L4.48933 13.356C4.468 13.3773 4.468 13.4427 4.468 13.4853C4.468 13.7 4.64 13.85 4.83333 13.85C4.88618 13.8491 4.93825 13.8372 4.98624 13.8151C5.03422 13.7929 5.07705 13.761 5.112 13.7213H7.71C7.796 13.7853 7.882 13.85 8.01067 13.85C8.09667 13.85 8.22533 13.7853 8.29 13.7213H10.888C10.9617 13.7973 11.061 13.8432 11.1667 13.85C11.2147 13.8505 11.2624 13.8413 11.3068 13.8232C11.3513 13.805 11.3917 13.7782 11.4257 13.7442C11.4598 13.7103 11.4867 13.6699 11.5049 13.6255C11.5231 13.581 11.5324 13.5334 11.532 13.4853C11.532 13.4633 11.532 13.4207 11.5107 13.3987L12.756 11.2093C12.9273 11.1873 13.056 11.0373 13.056 10.844C13.056 10.8227 13.056 10.758 13.0347 10.7153L14.366 8.41801C14.538 8.39668 14.6667 8.24601 14.6667 8.05268C14.6667 7.85934 14.5593 7.70934 14.3873 7.66601M4.72667 12.7567L3.674 10.91H4.72667V12.7567ZM4.72667 10.738H3.67333C3.67333 10.7167 3.652 10.7167 3.652 10.652L4.74733 9.49268V10.738H4.72667ZM4.72667 9.21334L3.48 10.5227C3.458 10.5013 3.41533 10.458 3.39333 10.458L2.06267 8.09668C2.084 8.07534 2.084 8.03201 2.084 8.01001V7.92468L3.35067 5.73468C3.41419 5.73608 3.4758 5.71291 3.52267 5.67001L4.72533 6.93668L4.72667 9.21334ZM4.72667 6.70134L3.63067 5.54134C3.652 5.47734 3.69533 5.41268 3.69533 5.37001V5.34801L4.76867 4.98334L4.72667 6.70134ZM4.72667 4.76934L3.67333 5.13334L4.72667 3.28668V4.76934ZM12.6707 5.69268L12.692 5.71401L11.8333 9.77201L10.2873 8.14001L12.6707 5.69268ZM8.09733 10.4593L8.37667 10.7593H7.79667L8.09733 10.4593ZM8.09733 10.158L6.05733 8.07601L7.99 6.03601L10.03 8.16134L8.09733 10.158ZM8.20467 10.3087L10.1153 8.31201L11.7473 10.0293L11.64 10.738H8.63333L8.20467 10.3087ZM10.9747 2.88001C10.996 2.92268 10.996 2.92268 11.06 2.92268L12.456 5.37068V5.39201C12.456 5.45601 12.4773 5.54201 12.52 5.56334L10.1587 8.01134L8.11867 5.88601L10.9747 2.88001ZM10.76 2.81534L8.01133 5.75668L6.616 4.29668L10.674 2.83668H10.7593L10.76 2.81534ZM7.75333 2.81534C7.78492 2.84494 7.82217 2.86782 7.86285 2.8826C7.90353 2.89738 7.94679 2.90376 7.99 2.90134C8.07687 2.90455 8.16156 2.87369 8.226 2.81534H10.0513L6.46467 4.12468L5.22 2.81468L7.75333 2.81534ZM4.94133 2.96534L4.96267 2.94401C4.984 2.94401 4.984 2.92268 5.02667 2.92268L6.272 4.23268L4.94133 4.72601V2.96534ZM4.94133 4.91934L6.42267 4.38268L7.88267 5.92868L5.90733 7.96868L4.91933 6.91601C4.94133 6.91601 4.94133 4.91934 4.94133 4.91934ZM4.94133 7.15268L5.82133 8.05401L4.94133 8.99868V7.15268ZM4.94133 9.27801L5.972 8.18334L8.012 10.266L7.582 10.6953H4.94067L4.94133 9.27801ZM5.09133 13.2287C5.04713 13.1909 4.99625 13.1617 4.94133 13.1427L4.91933 13.1213V10.91H7.36733L5.09133 13.2287ZM8.24733 13.2287C8.21583 13.1992 8.17868 13.1763 8.13812 13.1616C8.09757 13.1468 8.05444 13.1404 8.01133 13.1427C7.92446 13.1395 7.83978 13.1703 7.77533 13.2287H5.41267L7.646 10.9313H8.59067L10.824 13.2287H8.24733ZM11.1893 12.9493L11.1027 13.1213C11.082 13.1213 11.0387 13.1427 11.0173 13.1427L8.82733 10.9093H11.6187L11.1893 12.9493ZM11.4893 12.3913L11.79 10.91H12.3267L11.4893 12.3913ZM12.3267 10.738H11.812L11.8973 10.2227L12.3273 10.652C12.37 10.6733 12.3273 10.6953 12.3273 10.7387M13.938 8.11868L12.564 10.4593C12.5427 10.4813 12.4993 10.4813 12.478 10.4813L11.9627 9.94401L12.8213 5.97201L13.9167 7.88334C13.9167 7.90468 13.8953 7.94734 13.8953 7.96868C13.9167 8.07668 13.938 8.09734 13.938 8.11868Z" fill="var(--fill-0, white)"/>
</g>
</svg>
