<svg preserveAspectRatio="none" width="100%" height="100%" overflow="visible" style="display: block;" viewBox="0 0 244.088 177.2" fill="none" xmlns="http://www.w3.org/2000/svg">
<g id="Vector" filter="url(#filter0_f_0_74)">
<path fill-rule="evenodd" clip-rule="evenodd" d="M84.6366 98.5554C83.5091 108.944 80.5025 117.239 75.2679 124.594C68.2481 134.406 56.4768 143.573 37.0146 153.318C35.766 153.867 34.6421 154.664 33.7108 155.66C32.7796 156.657 32.0606 157.832 31.5975 159.115C31.1343 160.398 30.9366 161.761 31.0165 163.123C31.0964 164.484 31.452 165.815 32.062 167.035C32.6719 168.255 33.5234 169.338 34.5647 170.219C35.606 171.1 36.8155 171.76 38.1196 172.159C39.4238 172.558 40.7955 172.688 42.1514 172.541C43.5073 172.394 44.8192 171.973 46.0075 171.304C66.8119 160.915 81.885 149.949 91.6429 136.272C101.589 122.366 105.266 106.703 105.266 88.4887V28.0888C105.266 21.8592 102.792 15.8847 98.3867 11.4797C93.9817 7.07471 88.0073 4.6 81.7776 4.6H28.0888C21.8592 4.6 15.8847 7.07471 11.4797 11.4797C7.07471 15.8847 4.6 21.8592 4.6 28.0888V75.0665C4.6 88.0324 15.123 98.5554 28.0888 98.5554H84.6366ZM218.858 98.5554C217.731 108.944 214.724 117.239 209.49 124.594C202.47 134.406 190.699 143.573 171.237 153.318C169.988 153.867 168.864 154.664 167.933 155.66C167.002 156.657 166.283 157.832 165.819 159.115C165.356 160.398 165.159 161.761 165.238 163.123C165.318 164.484 165.674 165.815 166.284 167.035C166.894 168.255 167.745 169.338 168.787 170.219C169.828 171.1 171.037 171.76 172.342 172.159C173.646 172.558 175.017 172.688 176.373 172.541C177.729 172.394 179.041 171.973 180.229 171.304C201.034 160.915 216.107 149.949 225.865 136.272C235.811 122.366 239.488 106.703 239.488 88.4887V28.0888C239.488 21.8592 237.014 15.8847 232.609 11.4797C228.204 7.07471 222.229 4.6 216 4.6H162.311C156.081 4.6 150.107 7.07471 145.702 11.4797C141.297 15.8847 138.822 21.8592 138.822 28.0888V75.0665C138.822 88.0324 149.345 98.5554 162.311 98.5554H218.858Z" fill="var(--fill-0, #1E338A)"/>
</g>
<defs>
<filter id="filter0_f_0_74" x="0" y="0" width="244.088" height="177.2" filterUnits="userSpaceOnUse" color-interpolation-filters="sRGB">
<feFlood flood-opacity="0" result="BackgroundImageFix"/>
<feBlend mode="normal" in="SourceGraphic" in2="BackgroundImageFix" result="shape"/>
<feGaussianBlur stdDeviation="2.3" result="effect1_foregroundBlur_0_74"/>
</filter>
</defs>
</svg>
