<svg preserveAspectRatio="none" width="100%" height="100%" overflow="visible" style="display: block;" viewBox="0 0 24 24" fill="none" xmlns="http://www.w3.org/2000/svg">
<g id="Social Media Icon Square/Twitter">
<rect id="Social Media Icon" width="24" height="24" rx="4" fill="var(--fill-0, #1E338A)"/>
<path id="Twitter" d="M14.018 7.13424V7.13208H14.5807L14.7863 7.17314C14.9233 7.1998 15.0478 7.23473 15.1596 7.27796C15.2714 7.32118 15.3796 7.37161 15.4842 7.42923C15.5888 7.48686 15.6837 7.54558 15.7688 7.60537C15.8532 7.66444 15.9289 7.72711 15.996 7.79338C16.0624 7.86038 16.1659 7.87767 16.3066 7.84525C16.4472 7.81283 16.5987 7.76781 16.761 7.71018C16.9233 7.65255 17.0839 7.58772 17.2425 7.51568C17.4013 7.44364 17.4979 7.3979 17.5326 7.37845C17.5665 7.35828 17.5845 7.34748 17.5867 7.34603L17.5888 7.34279L17.5996 7.33739L17.6104 7.33198L17.6213 7.32658L17.6321 7.32118L17.6343 7.31794L17.6375 7.31577L17.6408 7.31361L17.6429 7.31037L17.6537 7.30713L17.6646 7.30497L17.6624 7.32118L17.6591 7.33739L17.6537 7.35359L17.6483 7.3698L17.6429 7.38061L17.6375 7.39141L17.6321 7.40762C17.6285 7.41843 17.6249 7.43283 17.6213 7.45084C17.6177 7.46886 17.5834 7.54089 17.5185 7.66696C17.4536 7.79303 17.3724 7.92089 17.275 8.05056C17.1776 8.18022 17.0903 8.27819 17.0132 8.34447C16.9353 8.41146 16.8837 8.45828 16.8584 8.48494C16.8332 8.51231 16.8025 8.53752 16.7664 8.56058L16.7123 8.59624L16.7015 8.60164L16.6907 8.60704L16.6885 8.61029L16.6853 8.61245L16.682 8.61461L16.6799 8.61785L16.6691 8.62325L16.6582 8.62866L16.6561 8.6319L16.6528 8.63406L16.6496 8.63622L16.6474 8.63946L16.6453 8.6427L16.642 8.64486L16.6388 8.64703L16.6366 8.65027H16.6907L16.9937 8.58543C17.1957 8.54221 17.3886 8.48999 17.5726 8.42875L17.8647 8.3315L17.8972 8.3207L17.9134 8.31529L17.9242 8.30989L17.9351 8.30449L17.9459 8.29908L17.9567 8.29368L17.9783 8.29044L18 8.28828V8.30989L17.9946 8.31205L17.9892 8.31529L17.987 8.31854L17.9838 8.3207L17.9805 8.32286L17.9783 8.3261L17.9762 8.32934L17.9729 8.3315L17.9697 8.33366L17.9675 8.3369L17.9654 8.34015L17.9621 8.34231L17.9567 8.35311L17.9513 8.36392L17.948 8.36608C17.9466 8.36824 17.9008 8.42947 17.8106 8.54977C17.7205 8.6708 17.6718 8.73202 17.6646 8.73347C17.6573 8.73563 17.6472 8.74644 17.6343 8.76589C17.622 8.78605 17.5455 8.86638 17.4049 9.00685C17.2642 9.14732 17.1264 9.2723 16.9915 9.38181C16.8559 9.49202 16.7874 9.62745 16.7859 9.7881C16.7838 9.94802 16.7755 10.1288 16.761 10.3305C16.7466 10.5322 16.7196 10.7502 16.6799 10.9843C16.6402 11.2184 16.5789 11.4831 16.4959 11.7785C16.413 12.0738 16.312 12.362 16.193 12.6429C16.0739 12.9239 15.9495 13.176 15.8196 13.3993C15.6898 13.6226 15.5708 13.8117 15.4626 13.9666C15.3544 14.1215 15.2444 14.2674 15.1325 14.4043C15.0207 14.5411 14.8794 14.6953 14.7084 14.8667C14.5367 15.0375 14.4429 15.1311 14.4271 15.1477C14.4105 15.1635 14.3398 15.2226 14.215 15.3249C14.0909 15.4279 13.9574 15.5309 13.8146 15.6339C13.6725 15.7362 13.5419 15.8216 13.4229 15.89C13.3039 15.9585 13.1603 16.0366 12.9922 16.1245C12.8249 16.2131 12.6438 16.2952 12.449 16.3709C12.2543 16.4465 12.0487 16.5167 11.8323 16.5816C11.6159 16.6464 11.4067 16.6968 11.2047 16.7329C11.0027 16.7689 10.7737 16.7995 10.5176 16.8247L10.1334 16.8625V16.8679H9.43011V16.8625L9.33813 16.8571C9.27682 16.8535 9.22632 16.8499 9.18664 16.8463C9.14698 16.8427 8.99728 16.8229 8.73759 16.7869C8.4779 16.7509 8.27411 16.7148 8.12623 16.6788C7.97835 16.6428 7.75833 16.5744 7.46617 16.4735C7.17402 16.3727 6.92406 16.2707 6.71631 16.1677C6.50928 16.0654 6.37943 16.0006 6.32677 15.9732C6.27483 15.9466 6.2164 15.9134 6.15148 15.8738L6.05409 15.8144L6.05194 15.8111L6.04868 15.809L6.04543 15.8068L6.04327 15.8036L6.03245 15.7982L6.02163 15.7928L6.01948 15.7895L6.01622 15.7874L6.01297 15.7852L6.01081 15.782L6.00866 15.7787L6.0054 15.7766H5.99999V15.755L6.01081 15.7571L6.02163 15.7604L6.07032 15.7658C6.10278 15.7694 6.19116 15.7748 6.33543 15.782C6.47971 15.7892 6.63299 15.7892 6.7953 15.782C6.95761 15.7748 7.12353 15.7586 7.29305 15.7333C7.46257 15.7081 7.66275 15.6649 7.89359 15.6037C8.12443 15.5424 8.33652 15.4697 8.52985 15.3854C8.72245 15.3004 8.85951 15.237 8.94103 15.1952C9.02181 15.1542 9.14517 15.0778 9.31108 14.9661L9.55995 14.7987L9.56212 14.7954L9.56536 14.7933L9.56862 14.7911L9.57077 14.7879L9.57294 14.7846L9.57618 14.7824L9.57944 14.7803L9.58159 14.777L9.59241 14.7738L9.60323 14.7716L9.6054 14.7608L9.60865 14.75L9.6119 14.7479L9.61406 14.7446L9.52749 14.7392C9.46978 14.7356 9.41387 14.732 9.35977 14.7284C9.30567 14.7248 9.22091 14.7086 9.10549 14.6798C8.99008 14.651 8.86564 14.6078 8.73218 14.5501C8.59873 14.4925 8.46888 14.4241 8.34264 14.3448C8.21641 14.2656 8.12515 14.1997 8.06888 14.1471C8.01334 14.0952 7.9412 14.0217 7.85247 13.9266C7.76446 13.8308 7.688 13.7325 7.62307 13.6317C7.55815 13.5308 7.49611 13.4144 7.43697 13.2826L7.34715 13.086L7.34174 13.0698L7.33633 13.0536L7.33308 13.0427L7.33092 13.0319L7.34715 13.0341L7.36338 13.0373L7.48241 13.0536C7.56176 13.0644 7.6862 13.068 7.85571 13.0644C8.02524 13.0608 8.14246 13.0536 8.20738 13.0427C8.27231 13.0319 8.31198 13.0247 8.32641 13.0211L8.34805 13.0157L8.3751 13.0103L8.40215 13.0049L8.40432 13.0017L8.40756 12.9995L8.41082 12.9974L8.41297 12.9941L8.39133 12.9887L8.36969 12.9833L8.34805 12.9779L8.32641 12.9725L8.30477 12.9671C8.29034 12.9635 8.2651 12.9563 8.22902 12.9455C8.19296 12.9347 8.09557 12.8951 7.93687 12.8266C7.77817 12.7582 7.65193 12.6916 7.55815 12.6267C7.46413 12.5617 7.37449 12.4906 7.2898 12.4139C7.2054 12.3361 7.11271 12.2359 7.01171 12.1135C6.91072 11.991 6.82055 11.8487 6.7412 11.6866C6.66185 11.5246 6.60234 11.3697 6.56266 11.222C6.52314 11.0752 6.49707 10.9251 6.48476 10.7736L6.46527 10.5467L6.47609 10.5488L6.48691 10.5521L6.49773 10.5575L6.50855 10.5629L6.51938 10.5683L6.5302 10.5737L6.69791 10.6493C6.80973 10.6997 6.94859 10.743 7.11451 10.779C7.28043 10.815 7.37961 10.8348 7.41207 10.8384L7.46076 10.8438H7.55815L7.556 10.8406L7.55274 10.8384L7.54949 10.8362L7.54733 10.833L7.54518 10.8298L7.54192 10.8276L7.53867 10.8254L7.53651 10.8222L7.52569 10.8168L7.51487 10.8114L7.51271 10.8081L7.50946 10.806L7.50621 10.8038L7.50405 10.8006L7.49323 10.7952L7.48241 10.7898L7.48025 10.7865C7.47809 10.7851 7.44707 10.762 7.38718 10.7174C7.32803 10.672 7.26599 10.6133 7.20107 10.5412C7.13615 10.4692 7.07122 10.3936 7.0063 10.3143C6.94126 10.2349 6.88333 10.1499 6.83317 10.0604C6.78268 9.97036 6.72929 9.85581 6.67303 9.71678C6.61749 9.57847 6.57529 9.43908 6.54643 9.2986C6.51758 9.15813 6.50135 9.01946 6.49773 8.88259C6.49413 8.74571 6.49773 8.62866 6.50855 8.53141C6.51938 8.43416 6.54102 8.32429 6.57348 8.20183C6.60594 8.07937 6.65284 7.94971 6.71415 7.81283L6.80612 7.60753L6.81153 7.59132L6.81694 7.57511L6.8202 7.57295L6.82235 7.56971L6.82452 7.56646L6.82776 7.5643L6.83102 7.56646L6.83317 7.56971L6.83534 7.57295L6.83858 7.57511L6.84184 7.57727L6.84399 7.58051L6.84616 7.58375L6.8494 7.58592L6.85481 7.59672L6.86022 7.60753L6.86348 7.60969L6.86563 7.61293L7.01171 7.77501C7.1091 7.88307 7.22452 8.00374 7.35797 8.137C7.49143 8.27027 7.56537 8.33942 7.57979 8.34447C7.59422 8.35023 7.61225 8.36679 7.63389 8.39417C7.65553 8.42083 7.72767 8.48458 7.8503 8.58543C7.97294 8.68628 8.13345 8.80335 8.33182 8.93662C8.5302 9.06988 8.75022 9.20135 8.99187 9.33102C9.23354 9.46069 9.49323 9.57774 9.77095 9.6822C10.0487 9.78666 10.2435 9.85509 10.3553 9.88751C10.4671 9.91993 10.6582 9.96134 10.9288 10.0118C11.1993 10.0622 11.4031 10.0946 11.5401 10.109C11.6772 10.1234 11.771 10.1317 11.8214 10.1339L11.8972 10.136L11.895 10.1198L11.8918 10.1036L11.8701 9.96855C11.8557 9.87851 11.8485 9.75244 11.8485 9.59035C11.8485 9.42827 11.8611 9.2788 11.8864 9.14192C11.9116 9.00505 11.9495 8.86638 12 8.72591C12.0505 8.58543 12.0999 8.47269 12.1482 8.38769C12.1973 8.30341 12.2615 8.20724 12.3408 8.09918C12.4202 7.99113 12.523 7.87947 12.6492 7.76421C12.7755 7.64894 12.9197 7.54629 13.082 7.45625C13.2444 7.3662 13.394 7.29776 13.5311 7.25094C13.6682 7.20412 13.7836 7.1735 13.8774 7.15909C13.9711 7.14469 14.018 7.1364 14.018 7.13424V7.13424Z" fill="var(--fill-0, white)"/>
</g>
</svg>
