<svg preserveAspectRatio="none" width="100%" height="100%" overflow="visible" style="display: block;" viewBox="0 0 24 24" fill="none" xmlns="http://www.w3.org/2000/svg">
<g id="Group 73">
<rect id="Social Media Icon" width="24" height="24" rx="4" fill="var(--fill-0, #1E338A)"/>
<path id="YouTube" d="M12.2924 16.6533L9.5843 16.6027C8.70746 16.585 7.82845 16.6202 6.96881 16.4375C5.6611 16.1645 5.56846 14.8259 5.47152 13.7031C5.33794 12.1245 5.38965 10.5173 5.64173 8.95192C5.78403 8.07357 6.34405 7.54946 7.2101 7.49242C10.1337 7.28544 13.0767 7.30997 15.9938 7.40654C16.3018 7.41539 16.612 7.46377 16.9158 7.51885C18.4154 7.78746 18.4519 9.30439 18.5491 10.5814C18.6461 11.8715 18.6052 13.1683 18.4199 14.4496C18.2712 15.5106 17.9868 16.4003 16.7866 16.4862C15.2827 16.5985 13.8134 16.6889 12.3053 16.6601C12.3054 16.6533 12.2967 16.6533 12.2924 16.6533ZM10.7003 13.9673C11.8336 13.3023 12.9452 12.6485 14.072 11.988C12.9366 11.3231 11.8271 10.6692 10.7003 10.0087V13.9673Z" fill="var(--fill-0, white)"/>
</g>
</svg>
