<svg preserveAspectRatio="none" width="100%" height="100%" overflow="visible" style="display: block;" viewBox="0 0 24 24" fill="none" xmlns="http://www.w3.org/2000/svg">
<g id="Social Media Icon Square/Instagram">
<rect id="Social Media Icon" width="24" height="24" rx="4" fill="var(--fill-0, #1E338A)"/>
<path id="Instagram" d="M12 6C14.3966 6 15.5949 6.00025 16.458 6.57129C16.8435 6.82633 17.1737 7.15655 17.4287 7.54199C17.9998 8.40514 18 9.60336 18 12C18 14.3966 17.9998 15.5949 17.4287 16.458C17.1737 16.8435 16.8435 17.1737 16.458 17.4287C15.5949 17.9998 14.3966 18 12 18C9.60336 18 8.40514 17.9998 7.54199 17.4287C7.15655 17.1737 6.82633 16.8435 6.57129 16.458C6.00025 15.5949 6 14.3966 6 12C6 9.60336 6.00025 8.40514 6.57129 7.54199C6.82633 7.15655 7.15655 6.82633 7.54199 6.57129C8.40514 6.00025 9.60336 6 12 6ZM12 8.89355C10.2845 8.89355 8.89364 10.2845 8.89355 12C8.89355 13.7155 10.2845 15.1064 12 15.1064C13.7155 15.1064 15.1064 13.7155 15.1064 12C15.1064 10.2846 13.7154 8.89361 12 8.89355ZM12 9.94434C13.135 9.94439 14.0556 10.865 14.0557 12C14.0557 13.1351 13.1351 14.0556 12 14.0557C10.8649 14.0557 9.94434 13.1351 9.94434 12C9.94442 10.8649 10.8649 9.94434 12 9.94434ZM15.2285 8.00781C14.8256 8.00799 14.499 8.33529 14.499 8.73828C14.4993 9.14106 14.8257 9.46759 15.2285 9.46777C15.6315 9.46777 15.9587 9.14117 15.959 8.73828C15.959 8.33518 15.6316 8.00781 15.2285 8.00781Z" fill="var(--fill-0, white)"/>
</g>
</svg>
