<svg preserveAspectRatio="none" width="100%" height="100%" overflow="visible" style="display: block;" viewBox="0 0 24 24" fill="none" xmlns="http://www.w3.org/2000/svg">
<g id="Group 73">
<rect id="Social Media Icon" width="24" height="24" rx="4" fill="var(--fill-0, #1E338A)"/>
<path id="LinkedIn" d="M6.00001 7.61328C6.00001 7.22847 6.13515 6.91101 6.40542 6.66089C6.67568 6.41077 7.02704 6.28571 7.45947 6.28571C7.88419 6.28571 8.22781 6.40884 8.49036 6.65512C8.76063 6.90909 8.89577 7.24001 8.89577 7.64791C8.89577 8.01732 8.7645 8.32515 8.50194 8.57143C8.23168 8.8254 7.87646 8.95238 7.43631 8.95238H7.42472C7.00001 8.95238 6.65639 8.8254 6.39384 8.57143C6.13128 8.31746 6.00001 7.99807 6.00001 7.61328ZM6.15059 17.7143V10.0029H8.72202V17.7143H6.15059ZM10.1467 17.7143H12.7182V13.4084C12.7182 13.139 12.7491 12.9312 12.8108 12.785C12.9189 12.5233 13.083 12.3021 13.3031 12.1212C13.5232 11.9404 13.7992 11.8499 14.1313 11.8499C14.9962 11.8499 15.4286 12.431 15.4286 13.5931V17.7143H18V13.2929C18 12.1539 17.7297 11.29 17.1892 10.7013C16.6487 10.1126 15.9344 9.81818 15.0463 9.81818C14.0502 9.81818 13.2741 10.2453 12.7182 11.0996V11.1227H12.7066L12.7182 11.0996V10.0029H10.1467C10.1622 10.2492 10.1699 11.0149 10.1699 12.3001C10.1699 13.5854 10.1622 15.3901 10.1467 17.7143Z" fill="var(--fill-0, white)"/>
</g>
</svg>
